<?xml version="1.0" encoding="UTF-8"?>
<svg version="1.1" xmlns="http://www.w3.org/2000/svg" width="300" height="103">
<path d="M0 0 C3.52206126 0.51179953 5.36131232 -1.04418264 8.5 -2.63671875 C11.19052833 -2.94911273 13.5709171 -3.11271132 16.25 -3.07421875 C17.29800781 -3.06938477 17.29800781 -3.06938477 18.3671875 -3.06445312 C24.31315545 -2.90538203 29.24240449 -1.46773172 34.5 1.36328125 C34.83 0.04328125 35.16 -1.27671875 35.5 -2.63671875 C40.12 -2.63671875 44.74 -2.63671875 49.5 -2.63671875 C49.5 10.89328125 49.5 24.42328125 49.5 38.36328125 C54.78 38.36328125 60.06 38.36328125 65.5 38.36328125 C65.84804687 37.20828125 66.19609375 36.05328125 66.5546875 34.86328125 C68.7742886 28.20708617 71.74369677 21.86990501 74.65283203 15.49462891 C75.63447503 13.34250852 76.60872807 11.18715313 77.58203125 9.03125 C78.2027002 7.6625677 78.82377871 6.29407104 79.4453125 4.92578125 C79.73697296 4.28108887 80.02863342 3.63639648 80.32913208 2.97216797 C82.38392764 -1.52064639 82.38392764 -1.52064639 83.5 -2.63671875 C87.83530918 -2.78065332 92.16157731 -2.67883936 96.5 -2.63671875 C100.955 6.76828125 100.955 6.76828125 105.5 16.36328125 C105.83 10.09328125 106.16 3.82328125 106.5 -2.63671875 C110.79 -2.63671875 115.08 -2.63671875 119.5 -2.63671875 C119.5 14.52328125 119.5 31.68328125 119.5 49.36328125 C114.88 49.36328125 110.26 49.36328125 105.5 49.36328125 C101.5 40.61328125 101.5 40.61328125 101.5 38.36328125 C90.115 38.85828125 90.115 38.85828125 78.5 39.36328125 C78.17 42.66328125 77.84 45.96328125 77.5 49.36328125 C63.82444375 50.00629649 50.19173066 50.5307073 36.5 50.36328125 C36.005 47.39328125 36.005 47.39328125 35.5 44.36328125 C34.778125 44.98203125 34.05625 45.60078125 33.3125 46.23828125 C28.28943337 50.03348715 23.95056657 50.72022714 17.75 50.67578125 C16.68483154 50.6771106 16.68483154 50.6771106 15.59814453 50.6784668 C10.64460657 50.59981226 6.83012504 49.6661225 2.29296875 47.8359375 C-0.7500528 47.03374663 -2.84071879 48.90328372 -5.5 50.36328125 C-15.61671681 52.45013763 -25.41714483 51.13411252 -34.25 45.67578125 C-35.3225 44.91265625 -36.395 44.14953125 -37.5 43.36328125 C-35.88617243 39.96115826 -33.91396234 37.26003606 -31.5 34.36328125 C-28.27853304 35.06750891 -25.41395303 36.22131249 -22.375 37.48828125 C-16.75369432 39.59154233 -12.32759493 39.52627199 -6.5 38.36328125 C-6.36559222 35.9340826 -6.36559222 35.9340826 -7.5 33.36328125 C-10.25504834 32.0117481 -12.58087704 31.19407363 -15.5 30.36328125 C-16.94439453 29.83927734 -16.94439453 29.83927734 -18.41796875 29.3046875 C-24.11300766 27.27349316 -24.11300766 27.27349316 -29.765625 28.44140625 C-31.09518352 29.51970962 -32.39406852 30.63689677 -33.66015625 31.7890625 C-39.70071454 36.9575232 -49.14899225 35.51642724 -56.5 35.36328125 C-56.17 40.31328125 -55.84 45.26328125 -55.5 50.36328125 C-60.12 50.36328125 -64.74 50.36328125 -69.5 50.36328125 C-69.5 33.20328125 -69.5 16.04328125 -69.5 -1.63671875 C-64.735625 -1.69859375 -59.97125 -1.76046875 -55.0625 -1.82421875 C-53.5782251 -1.85153076 -52.0939502 -1.87884277 -50.56469727 -1.90698242 C-43.96786337 -1.94832098 -38.34744278 -1.87918521 -32.28173828 0.890625 C-30.4497488 1.56230816 -30.4497488 1.56230816 -28.54394531 0.61669922 C-27.97256836 0.26494629 -27.40119141 -0.08680664 -26.8125 -0.44921875 C-18.78024659 -5.2813712 -8.32092497 -3.1593512 0 0 Z M-22.5 10.36328125 C-22.81241113 12.89412939 -22.81241113 12.89412939 -21.5 15.36328125 C-15.2256623 18.44125823 -8.27972445 19.770046 -1.5 21.36328125 C-2.22159979 15.1022738 -2.22159979 15.1022738 -5.9375 10.36328125 C-9.47437131 8.98303879 -12.27829811 8.2069526 -16.0625 8.17578125 C-16.84753906 8.16160156 -17.63257813 8.14742187 -18.44140625 8.1328125 C-20.7243545 8.17160616 -20.7243545 8.17160616 -22.5 10.36328125 Z M34.5 6.36328125 C32.21307976 9.6009288 32.21307976 9.6009288 31.5 13.36328125 C30.89414063 13.00234375 30.28828125 12.64140625 29.6640625 12.26953125 C23.63211479 8.92876021 18.44060812 7.09528554 11.5 8.36328125 C10.84 9.02328125 10.18 9.68328125 9.5 10.36328125 C9.82041397 12.96608693 9.82041397 12.96608693 10.5 15.36328125 C11.11520508 15.5648584 11.73041016 15.76643555 12.36425781 15.97412109 C15.16055921 16.89233323 17.95528393 17.81525576 20.75 18.73828125 C21.71808594 19.05539063 22.68617188 19.3725 23.68359375 19.69921875 C24.61816406 20.00859375 25.55273438 20.31796875 26.515625 20.63671875 C27.37446289 20.91950684 28.23330078 21.20229492 29.11816406 21.49365234 C31.5 22.36328125 31.5 22.36328125 35.5 24.36328125 C35.5 18.42328125 35.5 12.48328125 35.5 6.36328125 C35.17 6.36328125 34.84 6.36328125 34.5 6.36328125 Z M-56.5 9.36328125 C-56.5 14.31328125 -56.5 19.26328125 -56.5 24.36328125 C-48.25152286 24.75656076 -48.25152286 24.75656076 -40.5 22.36328125 C-38.34745634 20.22029832 -38.34745634 20.22029832 -37.5 17.36328125 C-38.06560715 14.15817406 -38.42957677 12.1128282 -41.16796875 10.1953125 C-44.27808085 9.08567451 -46.95701353 9.17242152 -50.25 9.23828125 C-52.3125 9.27953125 -54.375 9.32078125 -56.5 9.36328125 Z M89.5 12.36328125 C88.49539469 14.48610794 87.49644398 16.61161146 86.5 18.73828125 C85.943125 19.92164063 85.38625 21.105 84.8125 22.32421875 C83.36783959 25.117567 83.36783959 25.117567 83.5 27.36328125 C87.79 27.36328125 92.08 27.36328125 96.5 27.36328125 C94.52 22.41328125 92.54 17.46328125 90.5 12.36328125 C90.17 12.36328125 89.84 12.36328125 89.5 12.36328125 Z M4.5 26.36328125 C4.7021062 27.97108134 4.93782865 29.5746778 5.1875 31.17578125 C5.31511719 32.06910156 5.44273437 32.96242188 5.57421875 33.8828125 C6.32474681 36.52680982 6.32474681 36.52680982 8.6953125 38.16796875 C11.9059245 39.53627971 14.2086787 39.73196097 17.6875 39.67578125 C19.25564453 39.66998047 19.25564453 39.66998047 20.85546875 39.6640625 C23.65471435 39.6236789 23.65471435 39.6236789 25.5 37.36328125 C25.73000198 34.8389863 25.73000198 34.8389863 24.5 32.36328125 C18.46142373 28.79503164 11.29565229 27.80416392 4.5 26.36328125 Z " fill="#E22333" transform="translate(180.5,27.63671875)"/>
<path d="M0 0 C11.26899967 8.86957977 19.05648355 20.28686281 21.75 34.5625 C23.18534489 48.67672472 20.47940036 62.40102875 11.875 74 C3.18249216 84.33754159 -8.29858413 93.06431525 -22.17285156 94.48535156 C-39.27062006 95.41844533 -52.60088867 92.86221783 -65.875 81.25 C-75.02051218 72.72479212 -81.55588583 61.112035 -82.24609375 48.46484375 C-82.65392485 31.04322026 -79.17053654 18.39984702 -67.0390625 5.26171875 C-48.70516205 -12.18256205 -20.66770477 -14.13659697 0 0 Z M-67.875 11.25 C-73.19330394 18.18778747 -77.13481271 25.45186625 -78.25 34.1875 C-78.12625 34.868125 -78.0025 35.54875 -77.875 36.25 C-73.60679517 39.09546989 -70.29610824 39.56001996 -65.3125 38.921875 C-56.38241832 37.02908595 -44.46362327 32.83862327 -37.875 26.25 C-39.525 26.25 -41.175 26.25 -42.875 26.25 C-42.875 25.59 -42.875 24.93 -42.875 24.25 C-42.27171875 24.11722656 -41.6684375 23.98445313 -41.046875 23.84765625 C-40.24765625 23.67105469 -39.4484375 23.49445312 -38.625 23.3125 C-37.83609375 23.13847656 -37.0471875 22.96445312 -36.234375 22.78515625 C-34.76747243 22.45243166 -33.30591707 22.09369482 -31.85546875 21.6953125 C-26.48400762 20.48752834 -20.75907503 20.59864498 -15.875 23.25 C-14.51134717 24.20824253 -13.16705831 25.19721175 -11.875 26.25 C-10.9159375 24.7959375 -10.9159375 24.7959375 -9.9375 23.3125 C-7.875 20.25 -7.875 20.25 -6.875 19.25 C-3.21379072 18.84319897 -1.5131256 18.7498475 1.4375 21.0625 C3.125 23.25 3.125 23.25 4.125 26.25 C3.465 26.25 2.805 26.25 2.125 26.25 C1.63 25.26 1.63 25.26 1.125 24.25 C0.15638536 25.45010745 -0.7993885 26.66058244 -1.75 27.875 C-2.28367187 28.54789063 -2.81734375 29.22078125 -3.3671875 29.9140625 C-8.02871926 37.13581377 -7.85962347 45.95737199 -6.875 54.25 C-4.80621998 62.35887881 -0.80939774 68.43531633 5.125 74.25 C9.46400478 72.80366507 10.42644196 70.11825665 12.62890625 66.24609375 C18.66371142 54.16072674 20.14588197 41.59252978 16.5625 28.5 C11.7631939 14.74424237 3.06898433 4.76157622 -9.875 -1.75 C-30.55263795 -10.29365427 -52.76391898 -5.12878916 -67.875 11.25 Z M-12.875 27.25 C-13.535 28.075 -14.195 28.9 -14.875 29.75 C-17.27113489 32.74516861 -19.87690003 34.86514775 -22.875 37.25 C-22.545 35.93 -22.215 34.61 -21.875 33.25 C-23.525 33.58 -25.175 33.91 -26.875 34.25 C-26.38 35.24 -26.38 35.24 -25.875 36.25 C-25.215 36.25 -24.555 36.25 -23.875 36.25 C-23.875 36.91 -23.875 37.57 -23.875 38.25 C-24.865 38.25 -25.855 38.25 -26.875 38.25 C-28.51859477 40.39206204 -29.80955292 42.66354471 -31.1796875 44.98828125 C-33.23741261 47.73349517 -34.71379581 48.89081373 -37.875 50.25 C-40.68198047 50.41210526 -43.27220448 50.43833625 -46.0625 50.3125 C-52.59154406 50.14981734 -58.53322537 50.50484335 -64.875 52.25 C-65.205 53.24 -65.535 54.23 -65.875 55.25 C-62.575 55.58 -59.275 55.91 -55.875 56.25 C-55.215 57.9 -54.555 59.55 -53.875 61.25 C-46.945 58.94 -40.015 56.63 -32.875 54.25 C-32.875 54.91 -32.875 55.57 -32.875 56.25 C-33.57753906 56.36859375 -34.28007813 56.4871875 -35.00390625 56.609375 C-42.85585542 58.36137454 -50.09765627 61.63313804 -55.875 67.25 C-55.545 68.24 -55.215 69.23 -54.875 70.25 C-53.988125 69.734375 -53.10125 69.21875 -52.1875 68.6875 C-48.67476669 67.1631063 -47.42793493 67.10052105 -43.875 68.25 C-44.01937251 75.17988052 -47.09755343 78.44760593 -51.875 83.25 C-48.82188186 83.57850143 -48.82188186 83.57850143 -46.9296875 81.5546875 C-33.61845254 66.93938494 -33.61845254 66.93938494 -26.875 49.25 C-26.215 49.25 -25.555 49.25 -24.875 49.25 C-26.40469405 53.19225305 -27.95097768 57.12780576 -29.5 61.0625 C-29.92667969 62.16271484 -30.35335937 63.26292969 -30.79296875 64.39648438 C-33.66559695 71.66380498 -36.96257296 78.48529293 -40.875 85.25 C-36.38900257 83.99809374 -33.28152872 82.45614467 -29.875 79.25 C-29.875 78.59 -29.875 77.93 -29.875 77.25 C-29.215 77.25 -28.555 77.25 -27.875 77.25 C-27.545 77.91 -27.215 78.57 -26.875 79.25 C-23.50017443 70.7395703 -22.875 62.36450384 -22.875 53.25 C-22.47667969 54.80460937 -22.47667969 54.80460937 -22.0703125 56.390625 C-21.71377553 57.76047756 -21.3569917 59.13026588 -21 60.5 C-20.82597656 61.18191406 -20.65195312 61.86382812 -20.47265625 62.56640625 C-19.57355538 65.99630957 -18.64130043 69.1629524 -16.875 72.25 C-17.01569196 70.12465341 -17.16270921 67.99972471 -17.3125 65.875 C-17.39371094 64.69164062 -17.47492188 63.50828125 -17.55859375 62.2890625 C-17.68584936 59.33481099 -17.68584936 59.33481099 -18.875 57.25 C-16.4 59.23 -16.4 59.23 -13.875 61.25 C-13.83632812 59.60064453 -13.83632812 59.60064453 -13.796875 57.91796875 C-13.34536773 44.59321904 -10.70946839 35.21825574 -2.875 24.25 C-2.545 23.59 -2.215 22.93 -1.875 22.25 C-6.91718478 21.50850224 -9.50598689 23.82468026 -12.875 27.25 Z M-29.2421875 28.06640625 C-36.97266411 31.54167986 -44.10808057 36.17481042 -50.875 41.25 C-46.35376445 44.26415703 -42.22858383 44.984038 -36.875 44.25 C-33.58720172 42.92356513 -30.51622773 41.53245546 -28.875 38.25 C-30.525 38.58 -32.175 38.91 -33.875 39.25 C-30.63439846 32.61448256 -25.55233694 30.85185888 -18.875 28.25 C-22.99530713 25.75758207 -24.90854811 26.45738172 -29.2421875 28.06640625 Z M-61.875 46.25 C-61.875 46.58 -61.875 46.91 -61.875 47.25 C-57.915 47.58 -53.955 47.91 -49.875 48.25 C-50.865 46.6 -51.855 44.95 -52.875 43.25 C-56.17855546 43.25 -58.89608249 44.92603666 -61.875 46.25 Z M-65.875 47.25 C-61.875 48.25 -61.875 48.25 -61.875 48.25 Z M-77.875 48.25 C-77.76012252 49.83409994 -77.63265492 51.41728963 -77.5 53 C-77.43039063 53.88171875 -77.36078125 54.7634375 -77.2890625 55.671875 C-76.87649945 58.24066382 -76.16339043 60.00841015 -74.875 62.25 C-68.05901613 62.58278764 -62.95377934 62.49201565 -56.875 59.25 C-59.65703586 57.46949705 -61.04461938 57.25297578 -64.4375 57.3125 C-67.875 57.25 -67.875 57.25 -69.8125 55.75 C-70.163125 55.255 -70.51375 54.76 -70.875 54.25 C-70.215 52.6 -69.555 50.95 -68.875 49.25 C-71.845 48.92 -74.815 48.59 -77.875 48.25 Z M-21.875 65.25 C-21.875 68.55 -21.875 71.85 -21.875 75.25 C-21.545 75.25 -21.215 75.25 -20.875 75.25 C-20.875 71.95 -20.875 68.65 -20.875 65.25 C-21.205 65.25 -21.535 65.25 -21.875 65.25 Z M-69.875 70.25 C-67.55616787 74.75884026 -64.81048431 77.18906776 -60.875 80.25 C-53.06668786 76.86809145 -53.06668786 76.86809145 -46.875 71.25 C-46.875 70.59 -46.875 69.93 -46.875 69.25 C-49.47178151 69.68279692 -51.56685241 70.07666698 -53.875 71.375 C-56.52477777 72.53427778 -58.14437322 72.00850744 -60.875 71.25 C-61.205 70.26 -61.535 69.27 -61.875 68.25 C-64.75895737 68.25 -67.16977815 69.30905327 -69.875 70.25 Z M-16.875 72.25 C-16.545 77.86 -16.215 83.47 -15.875 89.25 C-14.225 88.59 -12.575 87.93 -10.875 87.25 C-12.525 82.3 -14.175 77.35 -15.875 72.25 C-16.205 72.25 -16.535 72.25 -16.875 72.25 Z M-21.875 76.25 C-23.44577907 81.27649303 -24.32354729 86.01119922 -24.875 91.25 C-22.15393306 88.52893306 -22.26844428 86.40223689 -21.75 82.625 C-21.58242188 81.43648438 -21.41484375 80.24796875 -21.2421875 79.0234375 C-21.12101562 78.10820313 -20.99984375 77.19296875 -20.875 76.25 C-21.205 76.25 -21.535 76.25 -21.875 76.25 Z M-28.875 79.25 C-29.205 80.57 -29.535 81.89 -29.875 83.25 C-29.215 82.92 -28.555 82.59 -27.875 82.25 C-28.205 81.26 -28.535 80.27 -28.875 79.25 Z M-30.875 83.25 C-31.473125 84.013125 -32.07125 84.77625 -32.6875 85.5625 C-34.34459332 87.5983575 -35.97797674 89.4478279 -37.875 91.25 C-36.555 91.25 -35.235 91.25 -33.875 91.25 C-31.59260829 88.32678035 -31.59260829 88.32678035 -29.875 85.25 C-30.205 84.59 -30.535 83.93 -30.875 83.25 Z " fill="#272362" transform="translate(81.875,8.75)"/>
<path d="M0 0 C1.57421875 0.8515625 1.57421875 0.8515625 2.57421875 2.8515625 C0.73307768 6.34338177 -1.23737686 9.56895591 -3.42578125 12.8515625 C-4.39515625 12.3565625 -5.36453125 11.8615625 -6.36328125 11.3515625 C-10.71306506 9.45298883 -14.75608329 9.56566262 -19.42578125 9.8515625 C-19.75578125 11.5015625 -20.08578125 13.1515625 -20.42578125 14.8515625 C-16.08007221 16.54156046 -11.79638777 18.04936494 -7.30078125 19.2890625 C-0.87081197 21.1924123 3.89227428 24.12409333 7.57421875 29.8515625 C8.32421875 33.1640625 8.32421875 33.1640625 8.57421875 35.8515625 C5.57421875 36.8515625 5.57421875 36.8515625 2.57421875 35.8515625 C0.011719 38.16388672 0.011719 38.16388672 -2.42578125 40.8515625 C-2.76316585 43.97654416 -2.76316585 43.97654416 -0.42578125 46.0390625 C0.23421875 46.6371875 0.89421875 47.2353125 1.57421875 47.8515625 C-4.86177272 51.96344594 -12.12028557 52.4468903 -19.58984375 51.4140625 C-26.08881494 49.96619044 -31.0122787 47.70347777 -36.42578125 43.8515625 C-34.81195368 40.44943951 -32.83974359 37.74831731 -30.42578125 34.8515625 C-27.20431429 35.55579016 -24.33973428 36.70959374 -21.30078125 37.9765625 C-15.67947557 40.07982358 -11.25337618 40.01455324 -5.42578125 38.8515625 C-5.29137347 36.42236385 -5.29137347 36.42236385 -6.42578125 33.8515625 C-9.18082959 32.50002935 -11.50665829 31.68235488 -14.42578125 30.8515625 C-15.87017578 30.32755859 -15.87017578 30.32755859 -17.34375 29.79296875 C-23.03878891 27.76177441 -23.03878891 27.76177441 -28.69140625 28.9296875 C-30.02096477 30.00799087 -31.31984977 31.12517802 -32.5859375 32.27734375 C-38.62649579 37.44580445 -48.0747735 36.00470849 -55.42578125 35.8515625 C-55.09578125 40.8015625 -54.76578125 45.7515625 -54.42578125 50.8515625 C-59.04578125 50.8515625 -63.66578125 50.8515625 -68.42578125 50.8515625 C-68.42578125 33.6915625 -68.42578125 16.5315625 -68.42578125 -1.1484375 C-63.66140625 -1.2103125 -58.89703125 -1.2721875 -53.98828125 -1.3359375 C-52.50400635 -1.36324951 -51.01973145 -1.39056152 -49.49047852 -1.41870117 C-42.89364462 -1.46003973 -37.27322403 -1.39090396 -31.20751953 1.37890625 C-29.37546567 2.05058504 -29.37546567 2.05058504 -27.46923828 1.10498047 C-26.89802246 0.75322754 -26.32680664 0.40147461 -25.73828125 0.0390625 C-18.16414808 -4.53571393 -7.97137933 -2.91743643 0 0 Z M-55.42578125 9.8515625 C-55.42578125 14.8015625 -55.42578125 19.7515625 -55.42578125 24.8515625 C-47.17730411 25.24484201 -47.17730411 25.24484201 -39.42578125 22.8515625 C-37.27323759 20.70857957 -37.27323759 20.70857957 -36.42578125 17.8515625 C-36.9913884 14.64645531 -37.35535802 12.60110945 -40.09375 10.68359375 C-43.2038621 9.57395576 -45.88279478 9.66070277 -49.17578125 9.7265625 C-51.23828125 9.7678125 -53.30078125 9.8090625 -55.42578125 9.8515625 Z " fill="#2C3690" transform="translate(179.42578125,27.1484375)"/>
<path d="M0 0 C0.680625 0.3609375 1.36125 0.721875 2.0625 1.09375 C1.17200811 5.33061665 -0.73197661 8.39416239 -2.9375 12.09375 C-7.9375 10.09375 -7.9375 10.09375 -10.125 8.96875 C-14.36141494 7.65075424 -18.53518351 7.93988263 -22.9375 8.09375 C-23.2675 9.74375 -23.5975 11.39375 -23.9375 13.09375 C-23.32753174 13.28485352 -22.71756348 13.47595703 -22.08911133 13.67285156 C-19.30571086 14.55190365 -16.52795216 15.4476364 -13.75 16.34375 C-12.79029297 16.64410156 -11.83058594 16.94445312 -10.84179688 17.25390625 C-0.81141912 20.51638206 -0.81141912 20.51638206 2.0625 24.09375 C2.79223009 27.09735413 2.806878 29.95241925 2.75 33.03125 C2.77771484 33.82982422 2.80542969 34.62839844 2.83398438 35.45117188 C2.81059571 41.09719584 2.81059571 41.09719584 0.85400391 43.70361328 C-4.51887635 48.40423711 -9.68741541 49.48433086 -16.625 49.46875 C-17.33108398 49.46786377 -18.03716797 49.46697754 -18.76464844 49.46606445 C-26.64355381 49.28879808 -32.74611851 46.96039896 -38.9375 42.09375 C-38.76124165 39.71426228 -38.24030227 38.39149151 -36.53515625 36.71484375 C-35.03100908 35.47259514 -33.48620149 34.27998944 -31.9375 33.09375 C-31.42703125 33.3825 -30.9165625 33.67125 -30.390625 33.96875 C-23.8246115 37.32160796 -18.22232932 37.53749595 -10.9375 37.09375 C-10.6075 35.44375 -10.2775 33.79375 -9.9375 32.09375 C-14.37455523 30.03000338 -18.715043 28.58305764 -23.4375 27.28125 C-29.30945374 25.52913477 -32.71630747 23.50681492 -36.9375 19.09375 C-38.90773371 15.15328257 -38.61528201 10.27387684 -37.32421875 6.12109375 C-35.31936559 2.10255547 -32.50551887 -0.8228103 -28.59375 -3.01953125 C-18.87569675 -6.26364608 -8.99897471 -4.30801981 0 0 Z " fill="#6D0F10" transform="translate(214.9375,28.90625)"/>
<path d="M0 0 C4.805625 -0.061875 9.61125 -0.12375 14.5625 -0.1875 C16.81622437 -0.22846802 16.81622437 -0.22846802 19.11547852 -0.27026367 C20.91650024 -0.28150269 20.91650024 -0.28150269 22.75390625 -0.29296875 C23.97408447 -0.3086792 25.1942627 -0.32438965 26.45141602 -0.34057617 C30.59683032 0.05728093 33.27742067 1.18986188 37 3 C37 7 37 7 35 10 C34.33375155 14.07463524 34.05503906 18.24356703 36.05078125 21.953125 C37.81316786 24.0950226 39.50789679 25.7539484 42 27 C40.48078522 31.25380138 37.86890976 32.85060569 34 35 C26.99549227 37.45772201 20.38877922 37.1539329 13 37 C13.33 41.95 13.66 46.9 14 52 C9.38 52 4.76 52 0 52 C0 34.84 0 17.68 0 0 Z M13 11 C13 15.95 13 20.9 13 26 C21.24847714 26.39327951 21.24847714 26.39327951 29 24 C31.15254366 21.85701707 31.15254366 21.85701707 32 19 C31.43439285 15.79489281 31.07042323 13.74954695 28.33203125 11.83203125 C25.22191915 10.72239326 22.54298647 10.80914027 19.25 10.875 C17.1875 10.91625 15.125 10.9575 13 11 Z " fill="#272361" transform="translate(111,26)"/>
<path d="M0 0 C4.62 0 9.24 0 14 0 C14 13.53 14 27.06 14 41 C18.95 41 23.9 41 29 41 C28.109914 45.45042999 27.52433006 48.29764924 25 52 C19.70729868 53.1558773 14.44962339 53.1225108 9.0625 53.0625 C8.28326172 53.05798828 7.50402344 53.05347656 6.70117188 53.04882812 C4.80074732 53.03716908 2.90036294 53.01923877 1 53 C0.17131261 35.32207041 -0.12462277 17.69643374 0 0 Z " fill="#A41E23" transform="translate(216,25)"/>
<path d="M0 0 C4.29 0 8.58 0 13 0 C13 17.16 13 34.32 13 52 C9.04 52 5.08 52 1 52 C0.3145224 34.65496857 -0.15213672 17.36048977 0 0 Z " fill="#262462" transform="translate(287,25)"/>
<path d="M0 0 C0.66 0 1.32 0 2 0 C-1.32395145 12.39192426 -5.88617935 24.2788164 -13 35 C-8.35216858 33.24610135 -5.77997978 32.24312703 -3 28 C-2.34 28 -1.68 28 -1 28 C-2.36449584 33.20989319 -4.39849844 36.12838582 -8 40 C-11.22455753 41.61227876 -14.503749 41.46900928 -18 41 C-20.81901736 39.90583902 -23.40449079 38.5462608 -26 37 C-24.90945312 35.92685547 -24.90945312 35.92685547 -23.796875 34.83203125 C-13.51550071 24.42142181 -6.41425604 13.09577275 0 0 Z " fill="#A31E22" transform="translate(55,58)"/>
<path d="M0 0 C2.45162922 2.92721734 3.55560224 5.28433898 4.38671875 9 C4.60303955 9.96478271 4.81936035 10.92956543 5.04223633 11.92358398 C5.25517334 12.93880127 5.46811035 13.95401855 5.6875 15 C5.90881592 16.03133057 6.13013184 17.06266113 6.3581543 18.12524414 C7.80420997 25.18959081 8.69852378 31.7819209 8 39 C5.36 39.33 2.72 39.66 0 40 C0.33 37.36 0.66 34.72 1 32 C0.34 34.64 -0.32 37.28 -1 40 C-3.97 40 -6.94 40 -10 40 C-8.97613039 37.95226077 -7.9462588 35.90528779 -6.81640625 33.9140625 C-0.97286084 23.24640639 0.59541188 12.04055141 0 0 Z M2 14 C2 17.3 2 20.6 2 24 C2.33 24 2.66 24 3 24 C3 20.7 3 17.4 3 14 C2.67 14 2.34 14 2 14 Z " fill="#E62332" transform="translate(58,60)"/>
<path d="M0 0 C0 0.66 0 1.32 0 2 C-1.00160156 2.37511719 -2.00320312 2.75023438 -3.03515625 3.13671875 C-13.15200393 6.92476293 -13.15200393 6.92476293 -22 13 C-22 13.66 -22 14.32 -22 15 C-21.113125 14.484375 -20.22625 13.96875 -19.3125 13.4375 C-15.79309257 11.91020998 -14.548875 11.78324286 -11 13 C-10 14 -10 14 -10 17.0625 C-10.90146027 23.03930505 -15.91673577 26.91673577 -20 31 C-23.34448359 30.66555164 -25.52337009 29.21127671 -28 27 C-28 26.34 -28 25.68 -28 25 C-27.32453125 24.69707031 -26.6490625 24.39414063 -25.953125 24.08203125 C-20.89368037 21.705847 -17.07052221 19.8849217 -14 15 C-14.88751953 15.45052734 -14.88751953 15.45052734 -15.79296875 15.91015625 C-22.32761578 19.05488851 -22.32761578 19.05488851 -26.0625 18.75 C-26.701875 18.5025 -27.34125 18.255 -28 18 C-28.33 16.35 -28.66 14.7 -29 13 C-20.90973131 6.22166677 -10.95660698 0 0 0 Z " fill="#6D0F0F" transform="translate(49,63)"/>
<path d="M0 0 C0.33 0.66 0.66 1.32 1 2 C0.39414062 1.97679687 -0.21171875 1.95359375 -0.8359375 1.9296875 C-7.00488771 1.7968178 -13.08878308 2.06541992 -19 4 C-19.33 4.66 -19.66 5.32 -20 6 C-19.30132812 5.97679687 -18.60265625 5.95359375 -17.8828125 5.9296875 C-16.97273438 5.91164063 -16.06265625 5.89359375 -15.125 5.875 C-13.76761719 5.84019531 -13.76761719 5.84019531 -12.3828125 5.8046875 C-10 6 -10 6 -8 8 C-8.15550101 11.1722206 -8.66113219 12.63059045 -10.8203125 14.984375 C-15.60440437 18.64947589 -18.9051995 20.87032339 -25 21 C-29 15.25 -29 15.25 -29 13 C-27.91332031 12.92652344 -27.91332031 12.92652344 -26.8046875 12.8515625 C-21.58541133 12.44793848 -16.90186342 11.98724193 -12 10 C-15.01806042 8.78985322 -15.01806042 8.78985322 -18.4375 9.1875 C-22 9 -22 9 -24.4375 7 C-24.953125 6.34 -25.46875 5.68 -26 5 C-24.42175272 1.47215314 -23.49506506 0.20792732 -19.875 -1.3125 C-12.85640577 -2.55773446 -6.71279403 -2.51729776 0 0 Z " fill="#2C3691" transform="translate(36,58)"/>
<path d="M0 0 C0.98484375 0.00902344 1.9696875 0.01804687 2.984375 0.02734375 C4.10585938 0.04474609 4.10585938 0.04474609 5.25 0.0625 C5.25 0.3925 5.25 0.7225 5.25 1.0625 C2.61 1.0625 -0.03 1.0625 -2.75 1.0625 C-2.75 1.7225 -2.75 2.3825 -2.75 3.0625 C-5.06 3.0625 -7.37 3.0625 -9.75 3.0625 C-9.75 2.4025 -9.75 1.7425 -9.75 1.0625 C-6.43929162 0.06140485 -3.44915231 -0.04106134 0 0 Z " fill="#42245B" transform="translate(50.75,99.9375)"/>
<path d="M0 0 C-0.33 1.98 -0.66 3.96 -1 6 C-1.99 6 -2.98 6 -4 6 C-4.66 4.35 -5.32 2.7 -6 1 C-3.92446352 0.4465236 -2.15634036 0 0 0 Z " fill="#212463" transform="translate(66,59)"/>
<path d="M0 0 C0.33 0 0.66 0 1 0 C1 2.64 1 5.28 1 8 C-0.32 8 -1.64 8 -3 8 C-1.125 1.125 -1.125 1.125 0 0 Z " fill="#A31D22" transform="translate(257,69)"/>
</svg>
