<svg width="335" height="113" viewBox="0 0 335 113" fill="none" xmlns="http://www.w3.org/2000/svg">
<path d="M10.8525 108.375H94.0455C96.9043 108.375 99.4914 107.211 101.365 105.331C103.238 103.452 104.398 100.856 104.398 97.9876V14.5209C104.398 11.6525 103.238 9.05676 101.365 7.17708C99.4914 5.2974 96.9043 4.13379 94.0455 4.13379H10.8525C7.9937 4.13379 5.40659 5.2974 3.53316 7.17708C1.65974 9.05676 0.5 11.6525 0.5 14.5209V97.9917C0.5 100.86 1.65974 103.456 3.53316 105.335C5.40659 107.215 7.9937 108.379 10.8525 108.379V108.375Z" fill="#922DFF"/>
<path d="M88.865 92.478V95.1347H70.0091V92.478C70.0091 90.0612 68.0546 88.1002 65.6459 88.1002H51.9115C33.3192 88.1002 17.4721 73.8886 16.1421 55.283C16.0488 53.9608 16.0245 52.6385 16.0772 51.3162C16.0975 50.832 16.1258 50.3601 16.1623 49.8963C17.6059 31.7219 32.8123 17.3721 51.2951 17.3721C70.7269 17.3721 86.5415 33.2354 86.5415 52.7361C86.5415 59.6812 85.2074 65.6579 81.6308 71.2278C77 67.7736 71.2783 65.7311 65.0822 65.7311H61.1773C65.6175 62.7123 67.6815 58.2612 67.6815 52.7361C67.6815 43.6632 60.3257 36.295 51.2951 36.295C43.2135 36.295 36.4821 42.1782 35.1521 49.9166C35.0669 50.3804 35.0101 50.8524 34.9736 51.3243C34.925 51.7881 34.9088 52.2601 34.9088 52.732C34.9088 61.7968 42.2524 69.1732 51.2951 69.1732H64.4091C70.001 69.1732 75.1671 71.0284 79.3357 74.1572H79.3438C85.4263 78.7343 88.8691 84.2757 88.8691 92.4698L88.865 92.478Z" fill="white"/>
<path d="M145.099 34.0527C146.802 34.0527 148.335 34.2806 149.698 34.7363C151.06 35.1919 152.224 35.6761 153.189 36.1887C154.268 36.8153 155.261 37.5273 156.169 38.3247L157.873 34.4799H165.107V87.4324H155.318V70.3526C154.523 71.093 153.615 71.7481 152.593 72.3177C151.685 72.7733 150.606 73.2006 149.357 73.5993C148.108 73.998 146.689 74.1974 145.099 74.1974C142.658 74.1974 140.33 73.701 138.12 72.7042C135.906 71.7074 133.964 70.3119 132.289 68.5176C130.615 66.7234 129.281 64.6037 128.287 62.1544C127.294 59.7051 126.799 57.028 126.799 54.1271C126.799 51.2262 127.294 48.5491 128.287 46.0998C129.281 43.6505 130.615 41.5308 132.289 39.7365C133.964 37.9423 135.906 36.5468 138.12 35.55C140.335 34.5532 142.658 34.0568 145.099 34.0568V34.0527ZM156.165 54.123C156.165 50.8763 155.229 48.2887 153.355 46.352C151.482 44.4195 149.154 43.4471 146.377 43.4471C143.599 43.4471 141.271 44.4154 139.398 46.352C137.524 48.2887 136.588 50.8804 136.588 54.123C136.588 57.3657 137.524 59.9614 139.398 61.894C141.271 63.8306 143.599 64.7989 146.377 64.7989C149.154 64.7989 151.486 63.8306 153.355 61.894C155.229 59.9573 156.165 57.3657 156.165 54.123Z" fill="#6B21BA"/>
<path d="M197.025 50.2807L189.791 73.7686H181.279L168.51 34.4824H178.299L185.959 59.6791L194.044 34.4824H200.005L208.091 59.6791L215.751 34.4824H225.54L212.77 73.7686H204.259L197.025 50.2807Z" fill="#6B21BA"/>
<path d="M265.974 54.123C265.974 56.9141 265.447 59.5179 264.4 61.9387C263.35 64.3595 261.931 66.4793 260.143 68.302C258.354 70.1247 256.282 71.5609 253.93 72.6147C251.574 73.6684 249.064 74.1933 246.396 74.1933C243.728 74.1933 241.218 73.6684 238.862 72.6147C236.506 71.5609 234.438 70.1247 232.649 68.302C230.861 66.4793 229.442 64.3595 228.392 61.9387C227.341 59.5179 226.818 56.9141 226.818 54.123C226.818 51.332 227.341 48.7281 228.392 46.3073C229.442 43.8865 230.861 41.7668 232.649 39.944C234.438 38.1213 236.51 36.6851 238.862 35.6313C241.218 34.5776 243.728 34.0527 246.396 34.0527C249.064 34.0527 251.574 34.5816 253.93 35.6313C256.286 36.6851 258.358 38.1213 260.143 39.944C261.931 41.7668 263.35 43.8865 264.4 46.3073C265.451 48.7281 265.974 51.332 265.974 54.123ZM236.607 54.123C236.607 57.3697 237.544 59.9614 239.417 61.894C241.291 63.8306 243.618 64.799 246.396 64.799C249.174 64.799 251.505 63.8306 253.375 61.894C255.248 59.9573 256.185 57.3657 256.185 54.123C256.185 50.8804 255.248 48.2887 253.375 46.352C251.501 44.4195 249.174 43.4471 246.396 43.4471C243.618 43.4471 241.291 44.4154 239.417 46.352C237.544 48.2887 236.607 50.8804 236.607 54.123Z" fill="#6B21BA"/>
<path d="M275.763 25.0872H284.275V34.4818H292.786V43.4491H284.275V59.6749C284.275 61.3837 284.769 62.7345 285.763 63.7313C286.756 64.7282 288.103 65.2245 289.806 65.2245C290.26 65.2245 290.629 65.2123 290.913 65.1798C291.197 65.1513 291.452 65.1106 291.679 65.0496C291.906 64.9926 292.133 64.9072 292.361 64.7933V73.3334C291.963 73.5043 291.509 73.6467 290.998 73.7606C290.033 74.0454 288.926 74.1878 287.677 74.1878C285.747 74.1878 283.975 73.8582 282.357 73.2072C280.739 72.5522 279.348 71.6001 278.184 70.347C277.02 69.0938 276.112 67.6128 275.459 65.9081C274.806 64.1992 274.482 62.2626 274.482 60.1021V43.445H268.521V35.3321H271.075C274.198 35.3321 275.759 33.7657 275.759 30.6328V25.0791L275.763 25.0872Z" fill="#6B21BA"/>
<path d="M333.223 61.8125C332.712 63.2934 331.933 64.7744 330.883 66.2553C329.833 67.7363 328.555 69.0586 327.051 70.2263C325.547 71.3939 323.843 72.346 321.946 73.0865C320.044 73.827 317.988 74.1972 315.774 74.1972C313.106 74.1972 310.596 73.6723 308.24 72.6186C305.884 71.5648 303.816 70.1286 302.027 68.3059C300.239 66.4832 298.82 64.3634 297.77 61.9426C296.719 59.5218 296.196 56.918 296.196 54.1269C296.196 51.3359 296.719 48.732 297.77 46.3112C298.82 43.8904 300.239 41.7707 302.027 39.9479C303.816 38.1252 305.888 36.689 308.24 35.6352C310.596 34.5815 313.106 34.0566 315.774 34.0566C318.442 34.0566 320.741 34.5408 323.008 35.5091C325.279 36.4774 327.266 37.8445 328.965 39.6102C330.668 41.376 332.014 43.4957 333.008 45.9735C334.001 48.4513 334.496 51.1691 334.496 54.131C334.496 54.5867 334.468 55.0261 334.411 55.4533C334.354 55.8805 334.297 56.2955 334.241 56.6901C334.184 57.1458 334.127 57.573 334.07 57.9717H306.829C307.283 59.9084 308.248 61.5317 309.724 62.8418C311.2 64.1519 313.215 64.8069 315.766 64.8069C317.072 64.8069 318.162 64.6645 319.042 64.3797C319.922 64.0949 320.672 63.7532 321.297 63.3544C321.978 62.8988 322.546 62.3861 323 61.8165H333.215L333.223 61.8125ZM315.774 43.451C313.219 43.451 311.135 44.1915 309.517 45.6724C307.899 47.1534 306.865 48.9761 306.411 51.1365H325.137C324.683 48.972 323.645 47.1534 322.031 45.6724C320.413 44.1915 318.329 43.451 315.774 43.451Z" fill="#6B21BA"/>
<path d="M172.117 90.9546L165.505 109.221H161.114L154.502 90.9546H158.376L163.335 105.478L168.269 90.9546H172.117Z" fill="#6B21BA"/>
<path d="M187.587 101.658C187.587 102.181 187.553 102.652 187.484 103.071H177.023C177.109 104.118 177.471 104.938 178.108 105.531C178.745 106.124 179.529 106.421 180.458 106.421C181.802 106.421 182.757 105.836 183.325 104.667H187.226C186.812 106.063 186.02 107.214 184.849 108.122C183.678 109.011 182.241 109.456 180.536 109.456C179.158 109.456 177.919 109.151 176.817 108.54C175.732 107.912 174.879 107.031 174.259 105.897C173.657 104.763 173.355 103.455 173.355 101.972C173.355 100.471 173.657 99.1542 174.259 98.0203C174.862 96.8863 175.706 96.0139 176.791 95.4033C177.876 94.7927 179.124 94.4874 180.536 94.4874C181.896 94.4874 183.11 94.784 184.178 95.3772C185.263 95.9703 186.098 96.8165 186.683 97.9156C187.286 98.9972 187.587 100.245 187.587 101.658ZM183.842 100.611C183.825 99.6689 183.489 98.9187 182.835 98.3605C182.18 97.7847 181.38 97.4969 180.433 97.4969C179.537 97.4969 178.78 97.776 178.16 98.3343C177.557 98.8751 177.187 99.634 177.049 100.611H183.842Z" fill="#6B21BA"/>
<path d="M198.156 94.5136C199.861 94.5136 201.238 95.0631 202.289 96.1622C203.339 97.2439 203.864 98.7617 203.864 100.716V109.221H200.248V101.213C200.248 100.061 199.964 99.1804 199.396 98.5698C198.828 97.9417 198.053 97.6277 197.071 97.6277C196.073 97.6277 195.28 97.9417 194.695 98.5698C194.127 99.1804 193.843 100.061 193.843 101.213V109.221H190.227V94.7229H193.843V96.5286C194.325 95.9005 194.936 95.4121 195.676 95.0631C196.434 94.6968 197.261 94.5136 198.156 94.5136Z" fill="#6B21BA"/>
<path d="M206.373 101.919C206.373 100.454 206.657 99.1542 207.225 98.0203C207.811 96.8863 208.603 96.0139 209.602 95.4033C210.6 94.7927 211.711 94.4874 212.934 94.4874C213.863 94.4874 214.75 94.6968 215.594 95.1155C216.438 95.5167 217.109 96.0576 217.609 96.738V89.8555H221.276V109.221H217.609V107.075C217.161 107.79 216.532 108.366 215.723 108.802C214.914 109.238 213.975 109.456 212.908 109.456C211.702 109.456 210.6 109.142 209.602 108.514C208.603 107.886 207.811 107.005 207.225 105.871C206.657 104.72 206.373 103.402 206.373 101.919ZM217.635 101.972C217.635 101.082 217.462 100.323 217.118 99.6951C216.774 99.0496 216.309 98.5611 215.723 98.2296C215.138 97.8807 214.509 97.7062 213.838 97.7062C213.166 97.7062 212.546 97.872 211.978 98.2034C211.41 98.5349 210.945 99.0234 210.583 99.6689C210.239 100.297 210.067 101.047 210.067 101.919C210.067 102.792 210.239 103.559 210.583 104.222C210.945 104.868 211.41 105.365 211.978 105.714C212.563 106.063 213.183 106.237 213.838 106.237C214.509 106.237 215.138 106.072 215.723 105.74C216.309 105.391 216.774 104.903 217.118 104.275C217.462 103.629 217.635 102.862 217.635 101.972Z" fill="#6B21BA"/>
<path d="M231.162 109.456C229.784 109.456 228.545 109.151 227.443 108.54C226.341 107.912 225.471 107.031 224.834 105.897C224.214 104.763 223.904 103.455 223.904 101.972C223.904 100.489 224.223 99.1804 224.86 98.0464C225.514 96.9124 226.401 96.0401 227.52 95.4295C228.639 94.8014 229.888 94.4874 231.265 94.4874C232.643 94.4874 233.891 94.8014 235.011 95.4295C236.13 96.0401 237.008 96.9124 237.645 98.0464C238.299 99.1804 238.627 100.489 238.627 101.972C238.627 103.455 238.291 104.763 237.619 105.897C236.965 107.031 236.069 107.912 234.933 108.54C233.814 109.151 232.557 109.456 231.162 109.456ZM231.162 106.264C231.816 106.264 232.428 106.107 232.996 105.792C233.581 105.461 234.046 104.973 234.391 104.327C234.735 103.682 234.907 102.896 234.907 101.972C234.907 100.594 234.546 99.5381 233.822 98.8053C233.116 98.0551 232.247 97.6801 231.214 97.6801C230.181 97.6801 229.311 98.0551 228.605 98.8053C227.916 99.5381 227.572 100.594 227.572 101.972C227.572 103.35 227.908 104.414 228.579 105.164C229.268 105.897 230.129 106.264 231.162 106.264Z" fill="#6B21BA"/>
<path d="M244.895 96.9735C245.36 96.2059 245.963 95.604 246.703 95.1678C247.461 94.7317 248.322 94.5136 249.286 94.5136V98.3605H248.33C247.194 98.3605 246.333 98.6309 245.747 99.1717C245.179 99.7125 244.895 100.655 244.895 101.998V109.221H241.279V94.7229H244.895V96.9735Z" fill="#6B21BA"/>
<path d="M271.023 96.6071C271.023 97.5841 270.791 98.5 270.326 99.3549C269.878 100.21 269.163 100.899 268.182 101.422C267.218 101.946 265.995 102.207 264.514 102.207H261.492V109.221H257.876V90.9546H264.514C265.909 90.9546 267.097 91.1988 268.079 91.6873C269.06 92.1758 269.792 92.8475 270.274 93.7023C270.773 94.5572 271.023 95.5255 271.023 96.6071ZM264.359 99.2502C265.358 99.2502 266.098 99.0234 266.581 98.5698C267.063 98.0988 267.304 97.4445 267.304 96.6071C267.304 94.8276 266.322 93.9379 264.359 93.9379H261.492V99.2502H264.359Z" fill="#6B21BA"/>
<path d="M279.944 109.456C278.567 109.456 277.327 109.151 276.225 108.54C275.123 107.912 274.253 107.031 273.616 105.897C272.996 104.763 272.686 103.455 272.686 101.972C272.686 100.489 273.005 99.1804 273.642 98.0464C274.296 96.9124 275.183 96.0401 276.302 95.4295C277.422 94.8014 278.67 94.4874 280.048 94.4874C281.425 94.4874 282.674 94.8014 283.793 95.4295C284.912 96.0401 285.79 96.9124 286.427 98.0464C287.082 99.1804 287.409 100.489 287.409 101.972C287.409 103.455 287.073 104.763 286.402 105.897C285.747 107.031 284.852 107.912 283.715 108.54C282.596 109.151 281.339 109.456 279.944 109.456ZM279.944 106.264C280.599 106.264 281.21 106.107 281.778 105.792C282.364 105.461 282.829 104.973 283.173 104.327C283.517 103.682 283.69 102.896 283.69 101.972C283.69 100.594 283.328 99.5381 282.605 98.8053C281.899 98.0551 281.029 97.6801 279.996 97.6801C278.963 97.6801 278.093 98.0551 277.387 98.8053C276.699 99.5381 276.354 100.594 276.354 101.972C276.354 103.35 276.69 104.414 277.361 105.164C278.05 105.897 278.911 106.264 279.944 106.264Z" fill="#6B21BA"/>
<path d="M293.677 96.9735C294.142 96.2059 294.745 95.604 295.486 95.1678C296.243 94.7317 297.104 94.5136 298.068 94.5136V98.3605H297.113C295.976 98.3605 295.115 98.6309 294.53 99.1717C293.962 99.7125 293.677 100.655 293.677 101.998V109.221H290.061V94.7229H293.677V96.9735Z" fill="#6B21BA"/>
<path d="M304.714 97.7324V104.746C304.714 105.234 304.826 105.592 305.05 105.819C305.291 106.028 305.687 106.133 306.238 106.133H307.917V109.221H305.644C302.596 109.221 301.072 107.72 301.072 104.72V97.7324H299.368V94.7229H301.072V91.1378H304.714V94.7229H307.917V97.7324H304.714Z" fill="#6B21BA"/>
<path d="M309.588 101.919C309.588 100.454 309.872 99.1542 310.44 98.0203C311.026 96.8863 311.809 96.0139 312.791 95.4033C313.789 94.7927 314.9 94.4874 316.123 94.4874C317.19 94.4874 318.12 94.7055 318.912 95.1416C319.721 95.5778 320.367 96.1273 320.849 96.7903V94.7229H324.491V109.221H320.849V107.101C320.384 107.781 319.739 108.348 318.912 108.802C318.103 109.238 317.164 109.456 316.097 109.456C314.891 109.456 313.789 109.142 312.791 108.514C311.809 107.886 311.026 107.005 310.44 105.871C309.872 104.72 309.588 103.402 309.588 101.919ZM320.849 101.972C320.849 101.082 320.677 100.323 320.333 99.6951C319.988 99.0496 319.523 98.5611 318.938 98.2296C318.353 97.8807 317.724 97.7062 317.052 97.7062C316.381 97.7062 315.761 97.872 315.193 98.2034C314.625 98.5349 314.16 99.0234 313.798 99.6689C313.454 100.297 313.281 101.047 313.281 101.919C313.281 102.792 313.454 103.559 313.798 104.222C314.16 104.868 314.625 105.365 315.193 105.714C315.778 106.063 316.398 106.237 317.052 106.237C317.724 106.237 318.353 106.072 318.938 105.74C319.523 105.391 319.988 104.903 320.333 104.275C320.677 103.629 320.849 102.862 320.849 101.972Z" fill="#6B21BA"/>
<path d="M331.639 89.8555V109.221H328.023V89.8555H331.639Z" fill="#6B21BA"/>
</svg>
