<svg width="60" height="61" viewBox="0 0 60 61" fill="none" xmlns="http://www.w3.org/2000/svg">
<path d="M5.97846 60.198H54.0215C55.6725 60.198 57.1665 59.526 58.2484 58.4406C59.3303 57.3551 60 55.856 60 54.1996V5.99842C60 4.34198 59.3303 2.84297 58.2484 1.75747C57.1665 0.671974 55.6725 0 54.0215 0H5.97846C4.32753 0 2.8335 0.671974 1.75162 1.75747C0.669737 2.84297 0 4.34198 0 5.99842V54.202C0 55.8584 0.669737 57.3574 1.75162 58.4429C2.8335 59.5284 4.32753 60.2004 5.97846 60.2004V60.198Z" fill="#922DFF"/>
<path d="M51.0285 51.0187V52.553H40.1394V51.0187C40.1394 49.6231 39.0107 48.4906 37.6197 48.4906H29.6883C18.9514 48.4906 9.79989 40.2836 9.0318 29.5391C8.97794 28.7755 8.96389 28.0119 8.99433 27.2483C9.00604 26.9687 9.02243 26.6961 9.04351 26.4283C9.87717 15.9328 18.6587 7.6459 29.3323 7.6459C40.5539 7.6459 49.6867 16.8068 49.6867 28.0683C49.6867 32.079 48.9163 35.5305 46.8509 38.747C44.1766 36.7522 40.8724 35.5727 37.2942 35.5727H35.0391C37.6033 33.8294 38.7953 31.259 38.7953 28.0683C38.7953 22.8287 34.5474 18.5737 29.3323 18.5737C24.6652 18.5737 20.778 21.9712 20.0099 26.44C19.9607 26.7079 19.9279 26.9804 19.9068 27.253C19.8787 27.5208 19.8694 27.7934 19.8694 28.0659C19.8694 33.3007 24.1102 37.5605 29.3323 37.5605H36.9055C40.1348 37.5605 43.1181 38.6319 45.5254 40.4387H45.5301C49.0427 43.0819 51.0309 46.282 51.0309 51.014L51.0285 51.0187Z" fill="white"/>
</svg>
