<?xml version="1.0" encoding="UTF-8"?>
<svg version="1.1" xmlns="http://www.w3.org/2000/svg" width="433" height="125">
<path d="M0 0 C0.69646847 -0.00297112 1.39293695 -0.00594224 2.11051053 -0.0090034 C4.45578103 -0.01770913 6.80100061 -0.01920023 9.14628601 -0.02069092 C10.82317718 -0.02531779 12.5000673 -0.03034227 14.17695618 -0.03573608 C18.74107709 -0.04887518 23.30518328 -0.05530804 27.86932015 -0.05974674 C30.71938225 -0.06267518 33.56944029 -0.06677956 36.41950035 -0.07125092 C45.33249688 -0.08493014 54.24548418 -0.09459458 63.15849048 -0.09845281 C73.45490056 -0.10293405 83.75117792 -0.12048323 94.04754764 -0.1494534 C102.00089393 -0.171056 109.95420285 -0.18115634 117.90757817 -0.18249393 C122.66020153 -0.18354302 127.41270021 -0.18947295 132.16529274 -0.20731354 C136.6361672 -0.22376956 141.10682292 -0.22596178 145.57771683 -0.21717453 C147.21882016 -0.21640281 148.85993514 -0.22076457 150.50100899 -0.23063278 C152.7414941 -0.24331535 154.9812002 -0.23749617 157.22167969 -0.22705078 C158.47548589 -0.22851734 159.72929209 -0.2299839 161.02109241 -0.2314949 C166.81367318 0.42531227 170.51107459 3.6591446 174.09164047 8.05198479 C176.37378002 11.992011 176.11774064 16.02996539 176.04594421 20.47857666 C176.05324554 21.494086 176.06054688 22.50959534 176.06806946 23.55587769 C176.08422628 26.8985573 176.05711227 30.23928108 176.02787781 33.58184814 C176.02684 35.91159565 176.02787775 38.24134492 176.03089905 40.5710907 C176.03071985 45.44758336 176.00991198 50.323413 175.97367859 55.19976807 C175.92827886 61.44660749 175.92722289 67.69247977 175.94071388 73.93943882 C175.9474001 78.7479256 175.93412141 83.55619235 175.91445541 88.36463737 C175.90676444 90.66789536 175.90444959 92.97117785 175.90762711 95.27444649 C175.90836982 98.49400518 175.88309313 101.71232877 175.85063171 104.93170166 C175.85558655 105.88096024 175.86054138 106.83021881 175.86564636 107.8082428 C175.77582724 113.39669023 175.17929388 116.81300127 171.30131531 121.14044189 C166.76966717 124.72564642 163.808642 125.64230891 158.05914307 125.65510559 C157.35250092 125.66205112 156.64585877 125.66899665 155.91780323 125.67615265 C153.56167227 125.69437673 151.20655348 125.68417192 148.85038757 125.67388916 C147.15644073 125.68095001 145.46250019 125.68969573 143.76856995 125.69999695 C139.17552296 125.72248245 134.5828207 125.71955316 129.98973966 125.71067548 C126.15272784 125.70556217 122.31578061 125.71286096 118.47877544 125.72014755 C109.42566806 125.73714397 100.37272924 125.73358339 91.31962585 125.71685791 C81.98547925 125.699936 72.65180027 125.71577262 63.31770474 125.74808079 C55.29797266 125.7747861 47.27838607 125.78205017 39.258614 125.77356571 C34.47128002 125.76863933 29.6842274 125.77083647 24.89692879 125.79135323 C20.39463602 125.80972517 15.89301529 125.80373337 11.39075851 125.77915382 C9.74082587 125.77415073 8.0908419 125.77762274 6.44095039 125.79030228 C-8.9871744 125.89946628 -8.9871744 125.89946628 -13.45938969 121.72459316 C-18.29159452 115.54773988 -19.28775324 110.08913193 -19.21626282 102.36309814 C-19.22327209 101.41893036 -19.23028137 100.47476257 -19.23750305 99.50198364 C-19.25501087 96.40199787 -19.24348572 93.30293586 -19.22993469 90.20294189 C-19.23263167 88.03635484 -19.23651581 85.86976896 -19.24153137 83.70318604 C-19.24741667 79.17076043 -19.23889448 74.63865096 -19.22016907 70.10626221 C-19.19738042 64.30919732 -19.21050866 58.51287331 -19.23445892 52.71583557 C-19.24894292 48.24443015 -19.24429892 43.77319912 -19.23394775 39.30178833 C-19.23128768 37.16484488 -19.23452481 35.02788538 -19.24386597 32.89096069 C-19.25407425 29.89947835 -19.23847022 26.90918025 -19.21626282 23.91778564 C-19.22435974 23.04274384 -19.23245667 22.16770203 -19.24079895 21.2661438 C-19.152909 14.84523363 -17.76816754 9.30117601 -13.18068695 4.57731628 C-8.53829822 0.60695461 -6.01873157 0.01429237 0 0 Z " fill="#E32126" transform="translate(257.6986846923828,-0.14044189453125)"/>
<path d="M0 0 C8.09944672 5.10617293 10.90642322 13.10229869 13 22 C13 25.96 13 29.92 13 34 C-2.51 34 -18.02 34 -34 34 C-32.49463665 40.52411918 -32.49463665 40.52411918 -28.5 44.375 C-27.8915625 44.85710937 -27.283125 45.33921875 -26.65625 45.8359375 C-21.54027949 49.43159602 -14.98291537 48.73474399 -9 48 C-6.46210971 46.63820521 -4.67933525 45.24114671 -2.6484375 43.21484375 C-1 42 -1 42 0.9765625 42.125 C3.30930241 43.13375239 4.86690718 44.3604738 6.75 46.0625 C7.67039062 46.88427734 7.67039062 46.88427734 8.609375 47.72265625 C9.29773438 48.35494141 9.29773438 48.35494141 10 49 C7.42774046 54.98470435 1.91684701 58.47873375 -4 60.875 C-13.08206166 63.52393465 -25.58512105 63.61356297 -34 59 C-41.92723731 53.88731926 -46.96548133 48.24466703 -49.44921875 39.03125 C-51.29597983 28.86751526 -51.17288248 19.73765611 -45.8984375 10.625 C-35.20209204 -4.16500853 -16.263807 -9.49756668 0 0 Z " fill="#FEFBFB" transform="translate(363,50)"/>
<path d="M0 0 C6.52067873 5.28219742 10.50923978 10.96404956 11.70703125 19.3828125 C11.70703125 22.6828125 11.70703125 25.9828125 11.70703125 29.3828125 C-1.16296875 29.3828125 -14.03296875 29.3828125 -27.29296875 29.3828125 C-24.74717089 36.37056531 -24.74717089 36.37056531 -19.29296875 39.3828125 C-13.33130628 40.98787547 -8.76779593 39.93300926 -3.29296875 37.3828125 C-1.97296875 36.3928125 -0.65296875 35.4028125 0.70703125 34.3828125 C3.67703125 36.3628125 6.64703125 38.3428125 9.70703125 40.3828125 C6.91975894 45.95735712 3.59773762 48.4036967 -1.79296875 51.1953125 C-10.38738622 54.06011832 -20.09602979 53.38681502 -28.24609375 49.578125 C-33.65456911 46.41974054 -39.26390944 40.24663896 -40.9140625 34.05078125 C-42.19956694 24.99923966 -42.09869353 16.37830197 -37.29296875 8.3828125 C-28.78927532 -2.27703069 -12.46448553 -7.76654218 0 0 Z M-26.29296875 13.3828125 C-27.59111115 15.6064193 -27.59111115 15.6064193 -27.29296875 19.3828125 C-19.04296875 19.3828125 -10.79296875 19.3828125 -2.29296875 19.3828125 C-2.59437611 12.75363707 -2.59437611 12.75363707 -5.35546875 10.0078125 C-13.21332745 5.66091194 -20.07497075 7.1648145 -26.29296875 13.3828125 Z " fill="#252B2B" transform="translate(185.29296875,60.6171875)"/>
<path d="M0 0 C0.68642578 -0.020625 1.37285156 -0.04125 2.08007812 -0.0625 C7.9988831 -0.10729701 12.78831778 1.15609007 17.3671875 5.15234375 C17.92664063 5.82394531 18.48609375 6.49554688 19.0625 7.1875 C19.63742188 7.85652344 20.21234375 8.52554688 20.8046875 9.21484375 C22.98619095 12.42547453 23.31343344 15.46250128 23.30102539 19.28417969 C23.30094986 20.06468689 23.30087433 20.84519409 23.30079651 21.64935303 C23.29563522 22.48178528 23.29047394 23.31421753 23.28515625 24.171875 C23.2837413 25.03186096 23.28232635 25.89184692 23.28086853 26.77789307 C23.27528097 29.51863109 23.26273075 32.25928676 23.25 35 C23.24498339 36.8606759 23.24042077 38.72135309 23.23632812 40.58203125 C23.22531561 45.13805246 23.20805951 49.69401228 23.1875 54.25 C18.8975 54.25 14.6075 54.25 10.1875 54.25 C9.6925 52.27 9.6925 52.27 9.1875 50.25 C8.28 50.889375 7.3725 51.52875 6.4375 52.1875 C0.91851262 55.6899343 -4.38874237 55.80513955 -10.8125 55.25 C-15.97011431 53.90108549 -21.06671397 51.06163434 -23.92578125 46.45703125 C-25.6354843 42.20160296 -25.3279786 37.74575644 -24.8125 33.25 C-22.43068019 28.00999642 -18.91482416 25.61353476 -13.8125 23.25 C-11.19487988 22.43831696 -8.57691321 21.94293659 -5.875 21.5 C-5.21048828 21.37496094 -4.54597656 21.24992187 -3.86132812 21.12109375 C0.8727466 20.2853987 5.38312725 20.14263972 10.1875 20.25 C8.07423474 15.54157376 8.07423474 15.54157376 4.1875 12.25 C-2.0430799 11.29825955 -6.75887736 12.14274782 -12.0234375 15.5703125 C-13.8125 16.25 -13.8125 16.25 -15.89453125 15.51953125 C-18.51135426 13.78741826 -20.09265649 11.86161422 -21.8125 9.25 C-20.60245454 5.61986361 -19.77627988 5.37306422 -16.5 3.625 C-15.72011719 3.19960938 -14.94023438 2.77421875 -14.13671875 2.3359375 C-9.47438778 0.1575711 -5.09728011 0.03765304 0 0 Z M-10.8125 35.25 C-11.23401163 38.55184112 -11.44098726 40.43023401 -9.375 43.125 C-5.49445091 44.8286557 -1.97953649 44.89997103 2.1875 44.25 C5.7537868 42.49927739 7.61024043 41.27332379 9.5625 37.8125 C10.20299816 35.18645753 10.34134014 32.9422024 10.1875 30.25 C3.11706722 29.90788228 -5.49611367 29.93361367 -10.8125 35.25 Z " fill="#252B2B" transform="translate(74.8125,57.75)"/>
<path d="M0 0 C5.28 0 10.56 0 16 0 C16 5.94 16 11.88 16 18 C20.95 18 25.9 18 31 18 C31 22.29 31 26.58 31 31 C26.05 31 21.1 31 16 31 C16.09354152 35.92994256 16.19963642 40.85939439 16.31738281 45.78881836 C16.35566993 47.46582634 16.39052331 49.14291638 16.421875 50.82006836 C16.46753179 53.23060432 16.5255241 55.64057557 16.5859375 58.05078125 C16.59748871 58.80087967 16.60903992 59.55097809 16.62094116 60.32380676 C16.72695459 64.06127713 16.87619082 65.81428623 19 69 C21.89608399 69.36498034 21.89608399 69.36498034 25.125 69.1875 C28.033125 69.0946875 28.033125 69.0946875 31 69 C31 72.96 31 76.92 31 81 C24.90892759 83.63397726 18.03429265 84.24183717 11.65234375 82.27734375 C6.39832438 79.8516563 3.16531375 76.804379 0.91064453 71.37841797 C-0.20094948 67.25449358 -0.25163019 63.56688618 -0.1953125 59.3203125 C-0.1924826 58.50754852 -0.18965271 57.69478455 -0.18673706 56.85739136 C-0.17560619 54.27977325 -0.15051515 51.70251181 -0.125 49.125 C-0.11496101 47.36979671 -0.10583677 45.61458794 -0.09765625 43.859375 C-0.07569015 39.57278074 -0.04120978 35.2864507 0 31 C-3.63 31 -7.26 31 -11 31 C-11 27.04 -11 23.08 -11 19 C-7.37 19 -3.74 19 0 19 C0 12.73 0 6.46 0 0 Z " fill="#FEF7F7" transform="translate(274,29)"/>
<path d="M0 0 C5.28 0 10.56 0 16 0 C16 32.34 16 64.68 16 98 C10.72 98 5.44 98 0 98 C0 65.66 0 33.32 0 0 Z " fill="#FEFBFB" transform="translate(391,12)"/>
<path d="M0 0 C-0.33 3.96 -0.66 7.92 -1 12 C-3.9296875 11.95117188 -3.9296875 11.95117188 -6.859375 11.90234375 C-9.33999176 11.94469744 -9.33999176 11.94469744 -13 13 C-13.66 18.61 -14.32 24.22 -15 30 C-11.04 30 -7.08 30 -3 30 C-3 33.96 -3 37.92 -3 42 C-6.96 42 -10.92 42 -15 42 C-15 55.53 -15 69.06 -15 83 C-19.62 83 -24.24 83 -29 83 C-29 69.47 -29 55.94 -29 42 C-31.97 42 -34.94 42 -38 42 C-39 41 -39 41 -39.09765625 38.49609375 C-39.08605469 37.48675781 -39.07445313 36.47742188 -39.0625 35.4375 C-39.05347656 34.42558594 -39.04445313 33.41367187 -39.03515625 32.37109375 C-39.02355469 31.58863281 -39.01195313 30.80617188 -39 30 C-35.7 29.67 -32.4 29.34 -29 29 C-29.061875 27.39125 -29.12375 25.7825 -29.1875 24.125 C-29.17849543 17.1374528 -27.81975414 11.21956502 -24.375 5.125 C-18.1842706 -0.41407367 -7.93014212 -3.96507106 0 0 Z " fill="#252B2B" transform="translate(143,29)"/>
<path d="M0 0 C3.08195931 1.62820492 5.10126278 3.07808835 7.3125 5.75 C5.79578036 10.30015893 2.14358947 12.25057264 -1.6875 14.75 C-2.3475 14.110625 -3.0075 13.47125 -3.6875 12.8125 C-7.6365676 10.09751603 -9.91212743 9.90159913 -14.6875 9.75 C-17.1112259 10.53785353 -17.1112259 10.53785353 -18.6875 11.75 C-18.6875 13.4 -18.6875 15.05 -18.6875 16.75 C-17.46933594 17.11351563 -16.25117188 17.47703125 -14.99609375 17.8515625 C-13.372113 18.35846978 -11.74843059 18.86633352 -10.125 19.375 C-9.32513672 19.61089844 -8.52527344 19.84679687 -7.70117188 20.08984375 C-2.07551941 21.8808678 2.38290679 24.2457232 6.3125 28.75 C7.93474917 33.61674752 8.21238787 38.87686403 6.6640625 43.8203125 C3.75417382 49.56547733 -0.77604829 51.7795161 -6.6875 53.75 C-17.90986592 54.50008101 -26.6036679 53.50464438 -35.6875 46.75 C-35.4375 44.875 -35.4375 44.875 -34.6875 42.75 C-32.625 41.5 -32.625 41.5 -30.6875 40.75 C-30.6875 40.09 -30.6875 39.43 -30.6875 38.75 C-29.0375 38.09 -27.3875 37.43 -25.6875 36.75 C-25.6875 37.41 -25.6875 38.07 -25.6875 38.75 C-19.91435538 41.09046404 -15.89031948 41.9469149 -9.6875 41.75 C-8.6975 41.255 -8.6975 41.255 -7.6875 40.75 C-7.28020772 38.42843403 -6.94311323 36.0931213 -6.6875 33.75 C-7.44933594 33.57984375 -8.21117188 33.4096875 -8.99609375 33.234375 C-17.03769251 31.34695856 -24.32956462 29.55970103 -30.75 24.1875 C-33.48946393 19.32716078 -33.55776573 15.20746077 -32.6875 9.75 C-30.36165314 4.82993933 -27.36606392 2.43768565 -22.6875 -0.25 C-16.06258126 -2.45830625 -6.63555482 -2.31239032 0 0 Z " fill="#252B2B" transform="translate(35.6875,59.25)"/>
<path d="M0 0 C3.70020466 1.85010233 5.71717754 4.57576631 8 8 C8 10.31 8 12.62 8 15 C-2.56 15 -13.12 15 -24 15 C-22.05245102 8.18357858 -21.06914151 5.2251276 -15.5 1.1875 C-10.30954629 -0.57354679 -5.41985718 -0.80926635 0 0 Z " fill="#E4282B" transform="translate(352,58)"/>
<path d="M0 0 C8.91 0 17.82 0 27 0 C27 3.96 27 7.92 27 12 C18.09 12 9.18 12 0 12 C0 8.04 0 4.08 0 0 Z " fill="#252B2B" transform="translate(205,79)"/>
</svg>
